<?xml version="1.0" encoding="UTF-8" standalone="no"?>
<!DOCTYPE svg PUBLIC "-//W3C//DTD SVG 1.1//EN" "http://www.w3.org/Graphics/SVG/1.1/DTD/svg11.dtd">
<svg width="100%" height="100%" viewBox="0 0 500 500" version="1.1" xmlns="http://www.w3.org/2000/svg" xmlns:xlink="http://www.w3.org/1999/xlink" xml:space="preserve" xmlns:serif="http://www.serif.com/" style="fill-rule:evenodd;clip-rule:evenodd;stroke-linejoin:round;stroke-miterlimit:2;">
    <g transform="matrix(1,0,0,1,26.0147,-18.472)">
        <g transform="matrix(1,0,0,1,-49.3365,128.61)">
            <path d="M149.182,164.526L185.668,176.095C180.075,196.436 170.773,211.543 157.763,221.417C144.753,231.291 128.247,236.228 108.246,236.228C83.497,236.228 63.156,227.773 47.223,210.865C31.289,193.956 23.322,170.84 23.322,141.515C23.322,110.495 31.331,86.403 47.35,69.241C63.368,52.078 84.43,43.497 110.534,43.497C133.333,43.497 151.852,50.235 166.09,63.711C174.566,71.677 180.922,83.119 185.16,98.036L147.91,106.935C145.707,97.273 141.109,89.645 134.117,84.052C127.124,78.458 118.628,75.661 108.627,75.661C94.812,75.661 83.603,80.619 75.001,90.535C66.398,100.451 62.097,116.512 62.097,138.718C62.097,162.28 66.335,179.061 74.81,189.062C83.285,199.063 94.303,204.063 107.864,204.063C117.865,204.063 126.468,200.885 133.672,194.529C140.876,188.172 146.046,178.171 149.182,164.526Z" style="fill:white;fill-rule:nonzero;"/>
        </g>
        <g transform="matrix(1,0,0,1,121.027,-140.273)">
            <path d="M22.305,409.889C22.305,390.904 25.144,374.97 30.823,362.088C35.06,352.595 40.845,344.077 48.176,336.534C55.507,328.991 63.538,323.397 72.267,319.753C83.879,314.837 97.27,312.379 112.441,312.379C139.901,312.379 161.874,320.897 178.358,337.933C194.843,354.968 203.085,378.657 203.085,408.999C203.085,439.087 194.907,462.627 178.549,479.62C162.192,496.614 140.325,505.11 112.949,505.11C85.235,505.11 63.199,496.656 46.841,479.747C30.484,462.839 22.305,439.553 22.305,409.889ZM61.08,408.618C61.08,429.721 65.953,445.719 75.7,456.61C85.447,467.5 97.821,472.946 112.822,472.946C127.824,472.946 140.134,467.543 149.754,456.737C159.373,445.931 164.183,429.721 164.183,408.109C164.183,386.751 159.501,370.817 150.135,360.308C140.77,349.798 128.332,344.543 112.822,344.543C97.312,344.543 84.811,349.862 75.319,360.498C65.826,371.135 61.08,387.175 61.08,408.618Z" style="fill:white;fill-rule:nonzero;"/>
        </g>
        <g transform="matrix(1,0,0,1,301.284,-405.977)">
            <path d="M29.933,770.814L29.933,584.44L90.32,584.44C113.204,584.44 128.12,585.372 135.07,587.237C145.749,590.034 154.691,596.115 161.895,605.48C169.099,614.846 172.701,626.944 172.701,641.776C172.701,653.218 170.625,662.838 166.472,670.635C162.319,678.432 157.043,684.556 150.644,689.005C144.245,693.455 137.74,696.4 131.129,697.841C122.145,699.621 109.135,700.511 92.1,700.511L67.564,700.511L67.564,770.814L29.933,770.814ZM67.564,615.969L67.564,668.855L88.159,668.855C102.991,668.855 112.907,667.88 117.907,665.931C122.908,663.982 126.828,660.931 129.667,656.778C132.506,652.625 133.926,647.794 133.926,642.285C133.926,635.504 131.934,629.911 127.951,625.503C123.967,621.096 118.925,618.342 112.822,617.24C108.33,616.392 99.304,615.969 85.743,615.969L67.564,615.969Z" style="fill:white;fill-rule:nonzero;"/>
        </g>
    </g>
</svg>
